<svg width="400" height="400" viewBox="0 0 400 400" fill="none" xmlns="http://www.w3.org/2000/svg">
<!-- Nana Logo Recreation -->
<rect width="400" height="400" fill="white"/>

<!-- Main logo shape (pink rounded square with heart) -->
<rect x="75" y="50" width="250" height="200" rx="40" ry="40" fill="#FF4D73"/>

<!-- Heart shape inside -->
<path d="M160 120C150 110 135 110 125 120C115 130 115 145 125 155L200 230L275 155C285 145 285 130 275 120C265 110 250 110 240 120L200 160L160 120Z" fill="white"/>

<!-- Text "nana" below -->
<g fill="#FF4D73">
  <!-- n -->
  <path d="M110 300 L110 350 L125 350 L125 325 C125 315 135 305 145 305 C155 305 165 315 165 325 L165 350 L180 350 L180 300 L165 300 L165 310 C160 305 150 300 145 300 C130 300 125 310 125 315 L125 300 L110 300 Z"/>
  
  <!-- a -->
  <circle cx="220" cy="325" r="25" fill="white"/>
  <circle cx="220" cy="325" r="15" fill="#FF4D73"/>
  <rect x="205" y="300" width="30" height="50" fill="#FF4D73"/>
  <rect x="215" y="310" width="10" height="30" fill="white"/>
  
  <!-- n -->
  <path d="M270 300 L270 350 L285 350 L285 325 C285 315 295 305 305 305 C315 305 325 315 325 325 L325 350 L340 350 L340 300 L325 300 L325 310 C320 305 310 300 305 300 C290 300 285 310 285 315 L285 300 L270 300 Z"/>
  
  <!-- a -->
  <circle cx="380" cy="325" r="25" fill="white"/>
  <circle cx="380" cy="325" r="15" fill="#FF4D73"/>
  <rect x="365" y="300" width="30" height="50" fill="#FF4D73"/>
  <rect x="375" y="310" width="10" height="30" fill="white"/>
</g>

</svg>
